<mxfile host="app.diagrams.net" agent="Mozilla/5.0 (Windows NT 10.0; Win64; x64) AppleWebKit/537.36 (KHTML, like Gecko) Chrome/136.0.0.0 Safari/537.36 Edg/136.0.0.0" version="27.0.3">
  <diagram name="Page-1" id="YuZUMVSqSA0ggZZGhqi4">
    <mxGraphModel dx="1668" dy="2034" grid="1" gridSize="10" guides="1" tooltips="1" connect="1" arrows="1" fold="1" page="1" pageScale="1" pageWidth="850" pageHeight="1100" math="0" shadow="0">
      <root>
        <mxCell id="0" />
        <mxCell id="1" parent="0" />
        <mxCell id="pHg86YGqUUAnu_XxykbZ-1" value="" style="rounded=0;whiteSpace=wrap;html=1;" vertex="1" parent="1">
          <mxGeometry x="280" y="-20" width="890" height="920" as="geometry" />
        </mxCell>
        <mxCell id="pHg86YGqUUAnu_XxykbZ-2" value="Hệ thống hỗ trợ học tập eLearning trên nền tảng web" style="text;html=1;align=center;verticalAlign=middle;whiteSpace=wrap;rounded=0;" vertex="1" parent="1">
          <mxGeometry x="497.5" y="-20" width="455" height="20" as="geometry" />
        </mxCell>
        <mxCell id="pHg86YGqUUAnu_XxykbZ-22" style="rounded=0;orthogonalLoop=1;jettySize=auto;html=1;entryX=1;entryY=1;entryDx=0;entryDy=0;endArrow=none;startFill=0;" edge="1" parent="1" source="pHg86YGqUUAnu_XxykbZ-29" target="pHg86YGqUUAnu_XxykbZ-63">
          <mxGeometry relative="1" as="geometry" />
        </mxCell>
        <mxCell id="pHg86YGqUUAnu_XxykbZ-23" style="rounded=0;orthogonalLoop=1;jettySize=auto;html=1;endArrow=none;startFill=0;" edge="1" parent="1" source="pHg86YGqUUAnu_XxykbZ-29" target="pHg86YGqUUAnu_XxykbZ-66">
          <mxGeometry relative="1" as="geometry" />
        </mxCell>
        <mxCell id="pHg86YGqUUAnu_XxykbZ-24" style="rounded=0;orthogonalLoop=1;jettySize=auto;html=1;endArrow=none;startFill=0;" edge="1" parent="1" source="pHg86YGqUUAnu_XxykbZ-130" target="pHg86YGqUUAnu_XxykbZ-67">
          <mxGeometry relative="1" as="geometry" />
        </mxCell>
        <mxCell id="pHg86YGqUUAnu_XxykbZ-26" style="rounded=0;orthogonalLoop=1;jettySize=auto;html=1;entryX=1;entryY=0;entryDx=0;entryDy=0;endArrow=none;startFill=0;" edge="1" parent="1" source="pHg86YGqUUAnu_XxykbZ-144" target="pHg86YGqUUAnu_XxykbZ-68">
          <mxGeometry relative="1" as="geometry" />
        </mxCell>
        <mxCell id="pHg86YGqUUAnu_XxykbZ-27" style="rounded=0;orthogonalLoop=1;jettySize=auto;html=1;endArrow=none;startFill=0;" edge="1" parent="1" source="pHg86YGqUUAnu_XxykbZ-29" target="pHg86YGqUUAnu_XxykbZ-71">
          <mxGeometry relative="1" as="geometry" />
        </mxCell>
        <mxCell id="pHg86YGqUUAnu_XxykbZ-28" style="rounded=0;orthogonalLoop=1;jettySize=auto;html=1;endArrow=none;startFill=0;" edge="1" parent="1" source="pHg86YGqUUAnu_XxykbZ-29" target="pHg86YGqUUAnu_XxykbZ-47">
          <mxGeometry relative="1" as="geometry" />
        </mxCell>
        <mxCell id="pHg86YGqUUAnu_XxykbZ-169" style="rounded=0;orthogonalLoop=1;jettySize=auto;html=1;entryX=1;entryY=0;entryDx=0;entryDy=0;endArrow=none;startFill=0;" edge="1" parent="1" source="pHg86YGqUUAnu_XxykbZ-29" target="pHg86YGqUUAnu_XxykbZ-76">
          <mxGeometry relative="1" as="geometry" />
        </mxCell>
        <mxCell id="pHg86YGqUUAnu_XxykbZ-29" value="Giảng viên" style="shape=umlActor;verticalLabelPosition=bottom;verticalAlign=top;html=1;outlineConnect=0;" vertex="1" parent="1">
          <mxGeometry x="1280" y="410" width="30" height="60" as="geometry" />
        </mxCell>
        <mxCell id="pHg86YGqUUAnu_XxykbZ-35" value="Đăng nhập" style="ellipse;whiteSpace=wrap;html=1;" vertex="1" parent="1">
          <mxGeometry x="530" y="380" width="120" height="60" as="geometry" />
        </mxCell>
        <mxCell id="pHg86YGqUUAnu_XxykbZ-45" style="rounded=0;orthogonalLoop=1;jettySize=auto;html=1;endArrow=open;endFill=0;dashed=1;" edge="1" parent="1" source="pHg86YGqUUAnu_XxykbZ-47" target="pHg86YGqUUAnu_XxykbZ-35">
          <mxGeometry relative="1" as="geometry" />
        </mxCell>
        <mxCell id="pHg86YGqUUAnu_XxykbZ-46" value="&amp;lt;&amp;lt;include&amp;gt;&amp;gt;" style="edgeLabel;html=1;align=center;verticalAlign=middle;resizable=0;points=[];" vertex="1" connectable="0" parent="pHg86YGqUUAnu_XxykbZ-45">
          <mxGeometry x="0.4745" y="-3" relative="1" as="geometry">
            <mxPoint x="-6" y="-11" as="offset" />
          </mxGeometry>
        </mxCell>
        <mxCell id="pHg86YGqUUAnu_XxykbZ-47" value="&lt;p style=&quot;white-space-collapse: preserve;&quot; dir=&quot;auto&quot;&gt;Tương tác với chatbot&lt;/p&gt;" style="ellipse;whiteSpace=wrap;html=1;" vertex="1" parent="1">
          <mxGeometry x="530" y="130" width="120" height="60" as="geometry" />
        </mxCell>
        <mxCell id="pHg86YGqUUAnu_XxykbZ-61" style="rounded=0;orthogonalLoop=1;jettySize=auto;html=1;dashed=1;endArrow=open;endFill=0;" edge="1" parent="1" source="pHg86YGqUUAnu_XxykbZ-63" target="pHg86YGqUUAnu_XxykbZ-35">
          <mxGeometry relative="1" as="geometry" />
        </mxCell>
        <mxCell id="pHg86YGqUUAnu_XxykbZ-62" value="&amp;lt;&amp;lt;include&amp;gt;&amp;gt;" style="edgeLabel;html=1;align=center;verticalAlign=middle;resizable=0;points=[];" vertex="1" connectable="0" parent="pHg86YGqUUAnu_XxykbZ-61">
          <mxGeometry x="0.5028" relative="1" as="geometry">
            <mxPoint as="offset" />
          </mxGeometry>
        </mxCell>
        <mxCell id="pHg86YGqUUAnu_XxykbZ-63" value="&lt;p style=&quot;white-space-collapse: preserve;&quot; dir=&quot;auto&quot;&gt;&lt;span style=&quot;text-align: left;&quot;&gt;Quản lý nội dung học tập&lt;/span&gt;&lt;/p&gt;" style="ellipse;whiteSpace=wrap;html=1;" vertex="1" parent="1">
          <mxGeometry x="780" y="30" width="120" height="60" as="geometry" />
        </mxCell>
        <mxCell id="pHg86YGqUUAnu_XxykbZ-64" style="rounded=0;orthogonalLoop=1;jettySize=auto;html=1;dashed=1;endArrow=open;endFill=0;" edge="1" parent="1" source="pHg86YGqUUAnu_XxykbZ-66" target="pHg86YGqUUAnu_XxykbZ-35">
          <mxGeometry relative="1" as="geometry" />
        </mxCell>
        <mxCell id="pHg86YGqUUAnu_XxykbZ-65" value="&amp;lt;&amp;lt;include&amp;gt;&amp;gt;" style="edgeLabel;html=1;align=center;verticalAlign=middle;resizable=0;points=[];" vertex="1" connectable="0" parent="pHg86YGqUUAnu_XxykbZ-64">
          <mxGeometry x="0.2243" y="1" relative="1" as="geometry">
            <mxPoint as="offset" />
          </mxGeometry>
        </mxCell>
        <mxCell id="pHg86YGqUUAnu_XxykbZ-66" value="&lt;p style=&quot;white-space-collapse: preserve;&quot; dir=&quot;auto&quot;&gt;&lt;span style=&quot;text-align: left;&quot;&gt;Quản lý bài kiểm tra và đánh giá bài làm&lt;/span&gt;&lt;/p&gt;" style="ellipse;whiteSpace=wrap;html=1;" vertex="1" parent="1">
          <mxGeometry x="780" y="180" width="120" height="60" as="geometry" />
        </mxCell>
        <mxCell id="pHg86YGqUUAnu_XxykbZ-67" value="&lt;p style=&quot;white-space-collapse: preserve;&quot; dir=&quot;auto&quot;&gt;&lt;span style=&quot;text-align: left;&quot;&gt;Quản lý lớp học thuật&lt;/span&gt;&lt;br style=&quot;text-align: left;&quot;&gt;&lt;/p&gt;" style="ellipse;whiteSpace=wrap;html=1;" vertex="1" parent="1">
          <mxGeometry x="780" y="340" width="120" height="60" as="geometry" />
        </mxCell>
        <mxCell id="pHg86YGqUUAnu_XxykbZ-68" value="&lt;p style=&quot;white-space-collapse: preserve;&quot; dir=&quot;auto&quot;&gt;Theo dõi tiến độ học viên/sinh viên&lt;/p&gt;" style="ellipse;whiteSpace=wrap;html=1;align=center;" vertex="1" parent="1">
          <mxGeometry x="790" y="650" width="120" height="60" as="geometry" />
        </mxCell>
        <mxCell id="pHg86YGqUUAnu_XxykbZ-69" style="rounded=0;orthogonalLoop=1;jettySize=auto;html=1;entryX=1;entryY=1;entryDx=0;entryDy=0;dashed=1;endArrow=open;endFill=0;" edge="1" parent="1" source="pHg86YGqUUAnu_XxykbZ-76" target="pHg86YGqUUAnu_XxykbZ-35">
          <mxGeometry relative="1" as="geometry" />
        </mxCell>
        <mxCell id="pHg86YGqUUAnu_XxykbZ-70" value="&amp;lt;&amp;lt;include&amp;gt;&amp;gt;" style="edgeLabel;html=1;align=center;verticalAlign=middle;resizable=0;points=[];" vertex="1" connectable="0" parent="pHg86YGqUUAnu_XxykbZ-69">
          <mxGeometry x="0.4212" y="-3" relative="1" as="geometry">
            <mxPoint as="offset" />
          </mxGeometry>
        </mxCell>
        <mxCell id="pHg86YGqUUAnu_XxykbZ-71" value="&lt;p style=&quot;white-space-collapse: preserve;&quot; dir=&quot;auto&quot;&gt;Quản lý diễn đàn&lt;/p&gt;" style="ellipse;whiteSpace=wrap;html=1;align=center;" vertex="1" parent="1">
          <mxGeometry x="790" y="780" width="120" height="60" as="geometry" />
        </mxCell>
        <mxCell id="pHg86YGqUUAnu_XxykbZ-72" style="rounded=0;orthogonalLoop=1;jettySize=auto;html=1;entryX=0.925;entryY=0.733;entryDx=0;entryDy=0;entryPerimeter=0;dashed=1;endArrow=open;endFill=0;" edge="1" parent="1" source="pHg86YGqUUAnu_XxykbZ-67" target="pHg86YGqUUAnu_XxykbZ-35">
          <mxGeometry relative="1" as="geometry" />
        </mxCell>
        <mxCell id="pHg86YGqUUAnu_XxykbZ-73" value="&amp;lt;&amp;lt;include&amp;gt;&amp;gt;" style="edgeLabel;html=1;align=center;verticalAlign=middle;resizable=0;points=[];" vertex="1" connectable="0" parent="pHg86YGqUUAnu_XxykbZ-72">
          <mxGeometry x="0.2747" y="-2" relative="1" as="geometry">
            <mxPoint as="offset" />
          </mxGeometry>
        </mxCell>
        <mxCell id="pHg86YGqUUAnu_XxykbZ-74" style="rounded=0;orthogonalLoop=1;jettySize=auto;html=1;entryX=0.789;entryY=0.911;entryDx=0;entryDy=0;entryPerimeter=0;dashed=1;endArrow=open;endFill=0;" edge="1" parent="1" source="pHg86YGqUUAnu_XxykbZ-68" target="pHg86YGqUUAnu_XxykbZ-35">
          <mxGeometry relative="1" as="geometry" />
        </mxCell>
        <mxCell id="pHg86YGqUUAnu_XxykbZ-75" value="&amp;lt;&amp;lt;include&amp;gt;&amp;gt;" style="edgeLabel;html=1;align=center;verticalAlign=middle;resizable=0;points=[];" vertex="1" connectable="0" parent="pHg86YGqUUAnu_XxykbZ-74">
          <mxGeometry x="0.5175" y="2" relative="1" as="geometry">
            <mxPoint as="offset" />
          </mxGeometry>
        </mxCell>
        <mxCell id="pHg86YGqUUAnu_XxykbZ-76" value="&lt;p style=&quot;white-space-collapse: preserve;&quot; dir=&quot;auto&quot;&gt;Quản lý học viên/sinh viên&lt;/p&gt;" style="ellipse;whiteSpace=wrap;html=1;align=center;" vertex="1" parent="1">
          <mxGeometry x="780" y="550" width="120" height="60" as="geometry" />
        </mxCell>
        <mxCell id="pHg86YGqUUAnu_XxykbZ-77" style="rounded=0;orthogonalLoop=1;jettySize=auto;html=1;entryX=0.699;entryY=0.939;entryDx=0;entryDy=0;entryPerimeter=0;dashed=1;endArrow=open;endFill=0;" edge="1" parent="1" source="pHg86YGqUUAnu_XxykbZ-71" target="pHg86YGqUUAnu_XxykbZ-35">
          <mxGeometry relative="1" as="geometry" />
        </mxCell>
        <mxCell id="pHg86YGqUUAnu_XxykbZ-78" value="&amp;lt;&amp;lt;include&amp;gt;&amp;gt;" style="edgeLabel;html=1;align=center;verticalAlign=middle;resizable=0;points=[];" vertex="1" connectable="0" parent="pHg86YGqUUAnu_XxykbZ-77">
          <mxGeometry x="0.5432" y="-1" relative="1" as="geometry">
            <mxPoint y="9" as="offset" />
          </mxGeometry>
        </mxCell>
        <mxCell id="pHg86YGqUUAnu_XxykbZ-105" style="rounded=0;orthogonalLoop=1;jettySize=auto;html=1;entryX=0;entryY=0;entryDx=0;entryDy=0;endArrow=open;endFill=0;dashed=1;" edge="1" parent="1" source="pHg86YGqUUAnu_XxykbZ-107" target="pHg86YGqUUAnu_XxykbZ-35">
          <mxGeometry relative="1" as="geometry" />
        </mxCell>
        <mxCell id="pHg86YGqUUAnu_XxykbZ-106" value="&amp;lt;&amp;lt;extend&amp;gt;&amp;gt;" style="edgeLabel;html=1;align=center;verticalAlign=middle;resizable=0;points=[];" vertex="1" connectable="0" parent="pHg86YGqUUAnu_XxykbZ-105">
          <mxGeometry x="-0.0397" relative="1" as="geometry">
            <mxPoint x="7" y="12" as="offset" />
          </mxGeometry>
        </mxCell>
        <mxCell id="pHg86YGqUUAnu_XxykbZ-107" value="&lt;p style=&quot;white-space-collapse: preserve;&quot; dir=&quot;auto&quot;&gt;Quên mật khẩu&lt;/p&gt;" style="ellipse;whiteSpace=wrap;html=1;" vertex="1" parent="1">
          <mxGeometry x="305" y="270" width="120" height="60" as="geometry" />
        </mxCell>
        <mxCell id="pHg86YGqUUAnu_XxykbZ-118" style="rounded=0;orthogonalLoop=1;jettySize=auto;html=1;dashed=1;endArrow=open;endFill=0;" edge="1" parent="1" source="pHg86YGqUUAnu_XxykbZ-115" target="pHg86YGqUUAnu_XxykbZ-63">
          <mxGeometry relative="1" as="geometry" />
        </mxCell>
        <mxCell id="pHg86YGqUUAnu_XxykbZ-120" value="&amp;lt;&amp;lt;extend&amp;gt;&amp;gt;" style="edgeLabel;html=1;align=center;verticalAlign=middle;resizable=0;points=[];" vertex="1" connectable="0" parent="pHg86YGqUUAnu_XxykbZ-118">
          <mxGeometry x="0.1639" relative="1" as="geometry">
            <mxPoint x="11" as="offset" />
          </mxGeometry>
        </mxCell>
        <mxCell id="pHg86YGqUUAnu_XxykbZ-115" value="&lt;p style=&quot;white-space-collapse: preserve;&quot; dir=&quot;auto&quot;&gt;Thêm, sửa, xóa nội dung học tập&lt;/p&gt;" style="ellipse;whiteSpace=wrap;html=1;align=center;" vertex="1" parent="1">
          <mxGeometry x="1000" width="120" height="60" as="geometry" />
        </mxCell>
        <mxCell id="pHg86YGqUUAnu_XxykbZ-119" style="rounded=0;orthogonalLoop=1;jettySize=auto;html=1;dashed=1;endArrow=open;endFill=0;" edge="1" parent="1" source="pHg86YGqUUAnu_XxykbZ-116" target="pHg86YGqUUAnu_XxykbZ-63">
          <mxGeometry relative="1" as="geometry" />
        </mxCell>
        <mxCell id="pHg86YGqUUAnu_XxykbZ-122" value="&amp;lt;&amp;lt;extend&amp;gt;&amp;gt;" style="edgeLabel;html=1;align=center;verticalAlign=middle;resizable=0;points=[];" vertex="1" connectable="0" parent="pHg86YGqUUAnu_XxykbZ-119">
          <mxGeometry x="0.0132" y="2" relative="1" as="geometry">
            <mxPoint as="offset" />
          </mxGeometry>
        </mxCell>
        <mxCell id="pHg86YGqUUAnu_XxykbZ-116" value="Thêm, xóa, sửa tài liệu học tập" style="ellipse;whiteSpace=wrap;html=1;align=center;" vertex="1" parent="1">
          <mxGeometry x="1000" y="80" width="120" height="60" as="geometry" />
        </mxCell>
        <mxCell id="pHg86YGqUUAnu_XxykbZ-125" style="rounded=0;orthogonalLoop=1;jettySize=auto;html=1;dashed=1;endArrow=open;endFill=0;" edge="1" parent="1" source="pHg86YGqUUAnu_XxykbZ-123" target="pHg86YGqUUAnu_XxykbZ-66">
          <mxGeometry relative="1" as="geometry" />
        </mxCell>
        <mxCell id="pHg86YGqUUAnu_XxykbZ-127" value="&amp;lt;&amp;lt;extend&amp;gt;&amp;gt;" style="edgeLabel;html=1;align=center;verticalAlign=middle;resizable=0;points=[];" vertex="1" connectable="0" parent="pHg86YGqUUAnu_XxykbZ-125">
          <mxGeometry x="0.0326" relative="1" as="geometry">
            <mxPoint as="offset" />
          </mxGeometry>
        </mxCell>
        <mxCell id="pHg86YGqUUAnu_XxykbZ-123" value="&lt;p style=&quot;white-space-collapse: preserve;&quot; dir=&quot;auto&quot;&gt;Thêm, sửa, xóa bài tâp/trắc nghiệm&lt;/p&gt;" style="ellipse;whiteSpace=wrap;html=1;align=center;" vertex="1" parent="1">
          <mxGeometry x="1000" y="160" width="120" height="60" as="geometry" />
        </mxCell>
        <mxCell id="pHg86YGqUUAnu_XxykbZ-126" style="rounded=0;orthogonalLoop=1;jettySize=auto;html=1;entryX=0.96;entryY=0.7;entryDx=0;entryDy=0;entryPerimeter=0;dashed=1;endArrow=open;endFill=0;" edge="1" parent="1" source="pHg86YGqUUAnu_XxykbZ-124" target="pHg86YGqUUAnu_XxykbZ-66">
          <mxGeometry relative="1" as="geometry" />
        </mxCell>
        <mxCell id="pHg86YGqUUAnu_XxykbZ-128" value="&amp;lt;&amp;lt;extend&amp;gt;&amp;gt;" style="edgeLabel;html=1;align=center;verticalAlign=middle;resizable=0;points=[];" vertex="1" connectable="0" parent="pHg86YGqUUAnu_XxykbZ-126">
          <mxGeometry x="-0.0398" y="1" relative="1" as="geometry">
            <mxPoint as="offset" />
          </mxGeometry>
        </mxCell>
        <mxCell id="pHg86YGqUUAnu_XxykbZ-124" value="&lt;p style=&quot;white-space-collapse: preserve;&quot; dir=&quot;auto&quot;&gt;Chấm điểm và gửi đánh giá &lt;/p&gt;" style="ellipse;whiteSpace=wrap;html=1;align=center;" vertex="1" parent="1">
          <mxGeometry x="1000" y="230" width="120" height="60" as="geometry" />
        </mxCell>
        <mxCell id="pHg86YGqUUAnu_XxykbZ-132" style="rounded=0;orthogonalLoop=1;jettySize=auto;html=1;dashed=1;endArrow=open;endFill=0;" edge="1" parent="1" source="pHg86YGqUUAnu_XxykbZ-129" target="pHg86YGqUUAnu_XxykbZ-67">
          <mxGeometry relative="1" as="geometry" />
        </mxCell>
        <mxCell id="pHg86YGqUUAnu_XxykbZ-140" value="&amp;lt;&amp;lt;extend&amp;gt;&amp;gt;" style="edgeLabel;html=1;align=center;verticalAlign=middle;resizable=0;points=[];" vertex="1" connectable="0" parent="pHg86YGqUUAnu_XxykbZ-132">
          <mxGeometry x="0.1385" y="-1" relative="1" as="geometry">
            <mxPoint as="offset" />
          </mxGeometry>
        </mxCell>
        <mxCell id="pHg86YGqUUAnu_XxykbZ-129" value="Thêm, sửa, xóa sinh viên" style="ellipse;whiteSpace=wrap;html=1;" vertex="1" parent="1">
          <mxGeometry x="1001" y="310" width="119" height="60" as="geometry" />
        </mxCell>
        <mxCell id="pHg86YGqUUAnu_XxykbZ-133" style="rounded=0;orthogonalLoop=1;jettySize=auto;html=1;entryX=0.9;entryY=0.814;entryDx=0;entryDy=0;entryPerimeter=0;dashed=1;endArrow=open;endFill=0;" edge="1" parent="1" source="pHg86YGqUUAnu_XxykbZ-130" target="pHg86YGqUUAnu_XxykbZ-67">
          <mxGeometry relative="1" as="geometry" />
        </mxCell>
        <mxCell id="pHg86YGqUUAnu_XxykbZ-141" value="&amp;lt;&amp;lt;extend&amp;gt;&amp;gt;" style="edgeLabel;html=1;align=center;verticalAlign=middle;resizable=0;points=[];" vertex="1" connectable="0" parent="pHg86YGqUUAnu_XxykbZ-133">
          <mxGeometry x="0.0541" y="1" relative="1" as="geometry">
            <mxPoint as="offset" />
          </mxGeometry>
        </mxCell>
        <mxCell id="pHg86YGqUUAnu_XxykbZ-135" value="" style="rounded=0;orthogonalLoop=1;jettySize=auto;html=1;endArrow=none;startFill=0;" edge="1" parent="1" source="pHg86YGqUUAnu_XxykbZ-29" target="pHg86YGqUUAnu_XxykbZ-130">
          <mxGeometry relative="1" as="geometry">
            <mxPoint x="1280" y="438" as="sourcePoint" />
            <mxPoint x="897" y="379" as="targetPoint" />
          </mxGeometry>
        </mxCell>
        <mxCell id="pHg86YGqUUAnu_XxykbZ-130" value="Thêm hoàng loạt sinh viên từ file excel" style="ellipse;whiteSpace=wrap;html=1;" vertex="1" parent="1">
          <mxGeometry x="1000" y="380" width="119" height="60" as="geometry" />
        </mxCell>
        <mxCell id="pHg86YGqUUAnu_XxykbZ-138" style="rounded=0;orthogonalLoop=1;jettySize=auto;html=1;entryX=0.787;entryY=0.924;entryDx=0;entryDy=0;entryPerimeter=0;dashed=1;endArrow=open;endFill=0;" edge="1" parent="1" source="pHg86YGqUUAnu_XxykbZ-136" target="pHg86YGqUUAnu_XxykbZ-67">
          <mxGeometry relative="1" as="geometry" />
        </mxCell>
        <mxCell id="pHg86YGqUUAnu_XxykbZ-142" value="&amp;lt;&amp;lt;extend&amp;gt;&amp;gt;" style="edgeLabel;html=1;align=center;verticalAlign=middle;resizable=0;points=[];" vertex="1" connectable="0" parent="pHg86YGqUUAnu_XxykbZ-138">
          <mxGeometry x="0.0519" relative="1" as="geometry">
            <mxPoint as="offset" />
          </mxGeometry>
        </mxCell>
        <mxCell id="pHg86YGqUUAnu_XxykbZ-136" value="Thêm, xóa khóa học&amp;nbsp;" style="ellipse;whiteSpace=wrap;html=1;" vertex="1" parent="1">
          <mxGeometry x="1001" y="450" width="119" height="60" as="geometry" />
        </mxCell>
        <mxCell id="pHg86YGqUUAnu_XxykbZ-149" style="rounded=0;orthogonalLoop=1;jettySize=auto;html=1;dashed=1;endArrow=open;endFill=0;" edge="1" parent="1" source="pHg86YGqUUAnu_XxykbZ-144" target="pHg86YGqUUAnu_XxykbZ-76">
          <mxGeometry relative="1" as="geometry" />
        </mxCell>
        <mxCell id="pHg86YGqUUAnu_XxykbZ-151" value="&amp;lt;&amp;lt;extend&amp;gt;&amp;gt;" style="edgeLabel;html=1;align=center;verticalAlign=middle;resizable=0;points=[];" vertex="1" connectable="0" parent="pHg86YGqUUAnu_XxykbZ-149">
          <mxGeometry x="0.2086" y="-1" relative="1" as="geometry">
            <mxPoint x="8" y="1" as="offset" />
          </mxGeometry>
        </mxCell>
        <mxCell id="pHg86YGqUUAnu_XxykbZ-156" style="rounded=0;orthogonalLoop=1;jettySize=auto;html=1;entryX=0.962;entryY=0.28;entryDx=0;entryDy=0;entryPerimeter=0;dashed=1;endArrow=open;endFill=0;" edge="1" parent="1" source="pHg86YGqUUAnu_XxykbZ-152" target="pHg86YGqUUAnu_XxykbZ-71">
          <mxGeometry relative="1" as="geometry" />
        </mxCell>
        <mxCell id="pHg86YGqUUAnu_XxykbZ-159" value="&amp;lt;&amp;lt;extend&amp;gt;&amp;gt;" style="edgeLabel;html=1;align=center;verticalAlign=middle;resizable=0;points=[];" vertex="1" connectable="0" parent="pHg86YGqUUAnu_XxykbZ-156">
          <mxGeometry x="0.0169" relative="1" as="geometry">
            <mxPoint as="offset" />
          </mxGeometry>
        </mxCell>
        <mxCell id="pHg86YGqUUAnu_XxykbZ-152" value="Thêm, sửa, xóa diễn đàn" style="ellipse;whiteSpace=wrap;html=1;" vertex="1" parent="1">
          <mxGeometry x="1010" y="750" width="119" height="60" as="geometry" />
        </mxCell>
        <mxCell id="pHg86YGqUUAnu_XxykbZ-157" style="rounded=0;orthogonalLoop=1;jettySize=auto;html=1;dashed=1;endArrow=open;endFill=0;" edge="1" parent="1" source="pHg86YGqUUAnu_XxykbZ-155" target="pHg86YGqUUAnu_XxykbZ-71">
          <mxGeometry relative="1" as="geometry" />
        </mxCell>
        <mxCell id="pHg86YGqUUAnu_XxykbZ-161" value="&amp;lt;&amp;lt;extend&amp;gt;&amp;gt;" style="edgeLabel;html=1;align=center;verticalAlign=middle;resizable=0;points=[];" vertex="1" connectable="0" parent="pHg86YGqUUAnu_XxykbZ-157">
          <mxGeometry x="0.0103" relative="1" as="geometry">
            <mxPoint as="offset" />
          </mxGeometry>
        </mxCell>
        <mxCell id="pHg86YGqUUAnu_XxykbZ-155" value="tương tác diễn đàn" style="ellipse;whiteSpace=wrap;html=1;" vertex="1" parent="1">
          <mxGeometry x="1000" y="830" width="119" height="60" as="geometry" />
        </mxCell>
        <mxCell id="pHg86YGqUUAnu_XxykbZ-162" value="" style="rounded=0;orthogonalLoop=1;jettySize=auto;html=1;entryX=1;entryY=0;entryDx=0;entryDy=0;endArrow=none;startFill=0;" edge="1" parent="1" source="pHg86YGqUUAnu_XxykbZ-29" target="pHg86YGqUUAnu_XxykbZ-144">
          <mxGeometry relative="1" as="geometry">
            <mxPoint x="1280" y="448" as="sourcePoint" />
            <mxPoint x="892" y="659" as="targetPoint" />
          </mxGeometry>
        </mxCell>
        <mxCell id="pHg86YGqUUAnu_XxykbZ-144" value="Quản lý tài khoản học viên/sinh viên" style="ellipse;whiteSpace=wrap;html=1;" vertex="1" parent="1">
          <mxGeometry x="1001" y="530" width="119" height="60" as="geometry" />
        </mxCell>
        <mxCell id="pHg86YGqUUAnu_XxykbZ-163" value="Xem điểm" style="ellipse;whiteSpace=wrap;html=1;" vertex="1" parent="1">
          <mxGeometry x="1001" y="600" width="119" height="60" as="geometry" />
        </mxCell>
        <mxCell id="pHg86YGqUUAnu_XxykbZ-166" style="rounded=0;orthogonalLoop=1;jettySize=auto;html=1;entryX=1;entryY=1;entryDx=0;entryDy=0;dashed=1;endArrow=open;endFill=0;" edge="1" parent="1" source="pHg86YGqUUAnu_XxykbZ-164" target="pHg86YGqUUAnu_XxykbZ-76">
          <mxGeometry relative="1" as="geometry" />
        </mxCell>
        <mxCell id="pHg86YGqUUAnu_XxykbZ-168" value="&amp;lt;&amp;lt;extend&amp;gt;&amp;gt;" style="edgeLabel;html=1;align=center;verticalAlign=middle;resizable=0;points=[];" vertex="1" connectable="0" parent="pHg86YGqUUAnu_XxykbZ-166">
          <mxGeometry x="0.1951" y="-2" relative="1" as="geometry">
            <mxPoint as="offset" />
          </mxGeometry>
        </mxCell>
        <mxCell id="pHg86YGqUUAnu_XxykbZ-164" value="Xuất báo cáo excel" style="ellipse;whiteSpace=wrap;html=1;" vertex="1" parent="1">
          <mxGeometry x="1001" y="670" width="119" height="60" as="geometry" />
        </mxCell>
        <mxCell id="pHg86YGqUUAnu_XxykbZ-165" style="rounded=0;orthogonalLoop=1;jettySize=auto;html=1;entryX=0.942;entryY=0.689;entryDx=0;entryDy=0;entryPerimeter=0;dashed=1;endArrow=open;endFill=0;" edge="1" parent="1" source="pHg86YGqUUAnu_XxykbZ-163" target="pHg86YGqUUAnu_XxykbZ-76">
          <mxGeometry relative="1" as="geometry" />
        </mxCell>
        <mxCell id="pHg86YGqUUAnu_XxykbZ-167" value="&amp;lt;&amp;lt;extend&amp;gt;&amp;gt;" style="edgeLabel;html=1;align=center;verticalAlign=middle;resizable=0;points=[];" vertex="1" connectable="0" parent="pHg86YGqUUAnu_XxykbZ-165">
          <mxGeometry x="0.0588" relative="1" as="geometry">
            <mxPoint as="offset" />
          </mxGeometry>
        </mxCell>
      </root>
    </mxGraphModel>
  </diagram>
</mxfile>
